# xmcd
#
# Track frame offsets:
#	150
#	21077
#	36378
#	56233
#	73990
#	89918
#	107512
#	119110
#	133135
#	147317
#	161475
#	174810
#	190308
#	203905
#	219378
#	235813
#	256088
#	273605
#	292590
#	318028
#
# Disc length: 4351 seconds
#
# Revision: 0
# Processed by: cddbd v1.5.1PL0 Copyright (c) Steve Scherf et al.
# Submitted via: dBpowerAMP V4.0
#
DISCID=3210fd14
DTITLE=Nitty Gritty Dirt Band - Will the Circle Be Unbroken, Vol 2
DYEAR=1989
DGENRE=country
TTITLE0=Life's Railway to Heaven
TTITLE1=Grandpa Was a Carpenter
TTITLE2=When I Get My Rewards
TTITLE3=Don't You Hear Jerusalem Moan
TTITLE4=Little Mountain Church House
TTITLE5=And So It Goes
TTITLE6=When It's Gone
TTITLE7=Mary Danced with the Soldiers
TTITLE8=Riding Alone
TTITLE9=I'm Sittin' on Top of the World
TTITLE10=Lovin' on the Side
TTITLE11=Lost River
TTITLE12=Bayou Jubilee
TTITLE13=Blues Berry Hill
TTITLE14=Turn of the Century
TTITLE15=One Step Over the Line
TTITLE16=You Ain't Going Nowhere
TTITLE17=The Valley Road
TTITLE18=Will the Circle Be Unbroken
TTITLE19=Amazing Grace
EXTD=
EXTT0=
EXTT1=
EXTT2=
EXTT3=
EXTT4=
EXTT5=
EXTT6=
EXTT7=
EXTT8=
EXTT9=
EXTT10=
EXTT11=
EXTT12=
EXTT13=
EXTT14=
EXTT15=
EXTT16=
EXTT17=
EXTT18=
EXTT19=
PLAYORDER=
